# xmcd
#
# Track frame offsets:
# 150
# 15828
# 36264
# 60834
# 93116
# 109629
# 136477
# 161689
# 184111
# 213895
# 243659
# 261209
# 280826
# 299931
#
# Disc length: 4359 seconds
#
#
# Revision: 0
# Processed by: cddbd v1.5.2PL0 Copyright (c) Steve Scherf et al.
# Submitted via: FreeRIP 2.96 
#
DISCID=c411050e
DTITLE=T.A. Barron - Merlin und der Zauberspiegel CD 4
DYEAR=2006
DGENRE=Hörbuch
TTITLE0=47 Er richtetet sich auf, wobei seine Gelenke knackten
TTITLE1=48 Mit ueberraschender Behaendigkeit
TTITLE2=49 "Also" erklaerte der Zauberer
TTITLE3=50 Der Alte kratzte sich an der schnabelaehnlichen Nase
TTITLE4=51 Er holte langsam muehsam Atem
TTITLE5=52 Jetzt erzaehl bitte
TTITLE6=53 Ich kann noch nicht einmal meinen kuemmerlichen Schatten bewegen
TTITLE7=54 Und noch etwas solltest du wissen
TTITLE8=55 Ploetzlich umwogte mich dicker Nebel
TTITLE9=56 Das Moor !
TTITLE10=57 Boing !
TTITLE11=58 Schliesslich kam ich zum Halten
TTITLE12=59 Jetzt, Ihr frueheren Verbuendeten
TTITLE13=60 Nach einer Weile spuerte ich einen harten Stoss gegen den Ruecken
EXTD=gelesen von Stefan Wilkening
EXTT0=
EXTT1=
EXTT2=
EXTT3=
EXTT4=
EXTT5=
EXTT6=
EXTT7=
EXTT8=
EXTT9=
EXTT10=
EXTT11=
EXTT12=
EXTT13=
PLAYORDER=
